<svg xmlns="http://www.w3.org/2000/svg" viewBox="0 0 204 150" class="design-iconfont">
    <g fill="none" fill-rule="evenodd">
        <path
            d="M47.6036277,27.2658373 C48.5232471,26.2762302 49.8113048,25.7142857 51.1598941,25.7142857 L59.8869282,25.7142857 C60.9887983,25.7142857 61.5603206,27.032853 60.8090082,27.8414352 L43.5494938,46.4142528 L53.0873875,46.4142528 L62.7857143,56.7643186 L43.5494938,56.7643186 L62.7857143,77.4642857 L51.1598941,77.4642857 C49.8113048,77.4642857 48.5232471,76.9023083 47.6036277,75.9127144 L28.0916132,54.9158691 C26.3504124,53.042227 26.3504157,50.1363445 28.0916165,48.2627023 L47.6036277,27.2658373 Z"
            fill="#1DA2B4" fill-rule="nonzero" transform="translate(42 17)" />
        <path
            d="M73.4676714,96.1627144 C72.5480499,97.1523083 71.2599893,97.7142857 69.911561,97.7142857 L61.1843429,97.7142857 C60.0824703,97.7142857 59.5109467,96.3957053 60.2624248,95.5870704 L77.5219786,77.0143186 L67.9840632,77.0143186 L58.2857143,66.6642528 L77.5219786,66.6642528 L58.2857143,45.9642857 L69.911561,45.9642857 C71.2599893,45.9642857 72.5480499,46.5262631 73.4676714,47.515857 L92.979855,68.5127023 C94.7210007,70.3863445 94.7210007,73.292227 92.979855,75.1658691 L73.4676714,96.1627144 Z"
            fill="#1DA2B4" fill-rule="nonzero" transform="translate(42 17)" />
    </g>
</svg>